<?xml version="1.0" encoding="utf-8"?>
<svg xmlns="http://www.w3.org/2000/svg" viewBox="0 0 128 250">
    <g fill="#500b16">
        <path d="M63.04 243.23 c-0.64 -0.30 -0.96 -0.61 -3.04 -2.96 -2.38 -2.68 -3.53 -4.38 -4.92 -7.23 l-1.23 -2.52 -0.12 -2.26 c-0.17 -3.17 -0.31 -4.02 -0.89 -5.29 -0.26 -0.61 -0.64 -1.74 -0.85 -2.52 -0.71 -2.80 -2.10 -7.01 -2.75 -8.28 -0.37 -0.71 -1.37 -2.66 -2.26 -4.31 -1.44 -2.66 -1.63 -3.13 -1.70 -4.09 -0.10 -1.25 0.23 -2.10 1.15 -2.97 0.64 -0.61 3.58 -1.67 4.66 -1.67 l0.73 0 0.89 1.70 c1.18 2.24 7.36 11.01 7.08 10.03 -0.17 -0.57 -0.78 -5.81 -1.18 -9.91 -0.19 -2.10 -0.68 -5.93 -1.06 -8.52 -0.63 -4.16 -0.71 -5.15 -0.78 -8.70 -0.07 -3.23 -0.02 -4.66 0.28 -7.48 0.68 -6.54 0.89 -9.22 1.06 -13.41 0.17 -4.57 0.49 -7.81 1.13 -12.23 0.90 -6.17 1.23 -11.91 0.97 -17.15 -0.24 -4.75 -0.49 -6.38 -2.17 -14.89 -2.03 -10.17 -2.49 -13.39 -2.90 -20.21 -0.38 -6.42 -0.03 -14.42 1.15 -26.73 0.43 -4.52 0.38 -6.56 -0.35 -12.17 -0.35 -2.73 -0.97 -7.03 -1.39 -9.57 -1.34 -8.03 -1.37 -8.45 -1.37 -13.83 0 -5.41 -0.10 -4.78 1.44 -9.15 0.54 -1.50 0.78 -2.56 0.97 -4.17 0.16 -1.18 0.45 -2.85 0.70 -3.72 0.24 -0.85 0.56 -2.09 0.70 -2.71 0.14 -0.63 0.38 -1.43 0.52 -1.77 0.14 -0.37 0.38 -1.17 0.52 -1.83 0.16 -0.64 0.31 -1.34 0.35 -1.55 0.09 -0.38 0.17 -0.40 1.58 -0.40 1.60 0 2.37 0.23 2.97 0.90 0.57 0.63 1.91 3.04 2.24 4.05 0.16 0.47 0.63 1.74 1.03 2.78 0.45 1.13 0.83 2.47 0.94 3.29 0.24 1.74 0.73 3.37 1.70 5.63 1.58 3.76 2.02 5.83 2.31 11.17 0.56 10.14 0.56 10.07 1.58 17.74 0.89 6.71 1.17 8.68 1.65 11.83 0.40 2.73 0.43 3.37 0.37 6.17 -0.07 2.19 -0.26 4.23 -0.64 6.78 -0.66 4.38 -0.85 10 -0.54 15.30 0.40 6.77 1.01 10.28 2.40 14.17 1.57 4.33 1.77 4.97 2.07 6.35 0.21 0.97 0.30 2.24 0.30 4.26 0 5.65 -0.54 8.47 -6.07 31.39 -1.53 6.30 -1.53 6.38 -1.53 13.91 0 5.25 0.07 7.44 0.30 9.74 0.42 4.02 1.06 8.37 1.79 12.23 1.84 9.76 1.72 8.63 1.74 15.60 0 3.44 0.03 8.14 0.05 10.43 l0.05 4.17 0.59 -1.74 c0.31 -0.96 0.57 -1.88 0.59 -2.03 0 -0.17 0.26 -0.96 0.59 -1.74 0.33 -0.80 0.92 -2.42 1.30 -3.62 0.40 -1.20 0.90 -2.52 1.13 -2.96 0.23 -0.43 0.47 -1.04 0.54 -1.36 0.10 -0.52 0.03 -0.66 -0.68 -1.43 -0.75 -0.80 -0.80 -0.92 -0.80 -1.81 0 -0.54 0.14 -1.34 0.33 -1.79 0.17 -0.47 0.57 -1.77 0.89 -2.90 0.30 -1.15 0.80 -2.83 1.10 -3.74 l0.52 -1.67 0.03 -4.61 c0.02 -4.43 0.03 -4.68 0.50 -6.52 0.61 -2.45 0.85 -5.03 0.52 -5.69 -0.50 -0.97 -0.31 -2.16 0.90 -5.62 0.63 -1.81 1.57 -4.23 2.09 -5.39 0.54 -1.15 1.06 -2.33 1.20 -2.63 0.12 -0.30 0.75 -1.23 1.39 -2.09 0.64 -0.85 1.84 -2.52 2.64 -3.72 1.83 -2.70 2.10 -2.96 3.08 -2.96 0.54 0 0.83 -0.10 1.08 -0.37 0.17 -0.19 0.73 -0.59 1.22 -0.89 0.78 -0.49 0.92 -0.64 1.20 -1.51 0.21 -0.64 0.31 -1.39 0.28 -2.21 -0.03 -1.29 0.03 -1.46 0.90 -1.90 0.19 -0.09 0.45 -0.45 0.56 -0.78 0.26 -0.80 1.63 -1.74 2.56 -1.74 0.50 0 0.66 -0.07 0.75 -0.38 0.07 -0.23 0.31 -0.66 0.56 -0.96 0.40 -0.54 0.47 -0.57 1.53 -0.57 0.82 0 1.39 0.12 2.12 0.43 1.08 0.49 1.27 0.66 1.27 1.23 0 0.21 0.14 0.56 0.33 0.78 0.26 0.33 0.35 0.85 0.45 2.52 l0.12 2.10 -0.80 0.66 c-0.47 0.38 -0.80 0.80 -0.80 1.01 0 0.19 -0.09 0.64 -0.19 1.01 -0.26 0.83 0.03 1.97 0.73 2.94 0.63 0.85 0.66 1.91 0.16 3.39 -0.19 0.56 -0.42 1.67 -0.52 2.45 -0.09 0.78 -0.35 1.88 -0.57 2.43 -0.75 1.76 -3.15 7.01 -4.43 9.63 -1.08 2.26 -1.30 2.59 -2.09 3.18 -0.49 0.37 -0.99 0.90 -1.15 1.22 -0.94 2 -1.41 3.22 -2.02 5.23 -0.37 1.27 -1.03 3.18 -1.44 4.28 -1.17 3.01 -1.60 4.54 -2.12 7.30 -0.85 4.66 -1.79 8.10 -2.37 8.63 -0.50 0.47 -1.10 1.69 -1.55 3.20 -0.82 2.75 -1.72 5.53 -2.23 6.78 -0.28 0.71 -1.04 2.99 -1.69 5.04 -0.64 2.05 -1.70 5.08 -2.35 6.70 -0.64 1.63 -1.30 3.32 -1.46 3.76 -0.16 0.45 -0.71 1.37 -1.25 2.07 -0.52 0.70 -1.11 1.65 -1.34 2.16 -0.35 0.80 -3.25 4.33 -3.86 4.68 -0.14 0.07 -0.73 0.80 -1.32 1.62 -1.30 1.83 -3.76 3.91 -5.69 4.89 -1.17 0.57 -1.51 0.66 -2.73 0.71 -0.90 0.02 -1.57 -0.05 -1.91 -0.21z"/>
        <path d="M41.83 197.77 c-0.28 -0.19 -0.68 -0.50 -0.87 -0.73 -0.19 -0.21 -1.34 -1.29 -2.56 -2.37 -2.23 -2 -3.95 -4.05 -4.77 -5.69 -0.63 -1.22 -2.66 -6.59 -3.03 -7.95 -0.35 -1.34 -0.52 -1.72 -1.39 -2.87 -0.85 -1.15 -1.20 -1.86 -2.24 -4.54 -0.90 -2.31 -3.06 -6.35 -4.75 -8.94 -2.26 -3.46 -4.47 -8.40 -5.51 -12.38 -0.77 -2.87 -1.70 -8.24 -1.90 -10.75 -0.14 -1.74 -0.30 -2.57 -0.82 -4.17 -0.61 -1.88 -0.66 -2.14 -0.71 -4.63 -0.03 -1.76 -0.16 -2.87 -0.33 -3.36 -0.35 -1.03 -0.33 -1.98 0.05 -2.31 0.68 -0.61 1.77 -1.01 2.71 -1.01 l0.96 0 0.71 1.46 c0.40 0.80 0.83 1.57 0.97 1.69 0.16 0.12 0.54 0.75 0.85 1.37 0.45 0.89 0.77 1.29 1.39 1.69 0.80 0.52 0.83 0.59 1.57 2.68 0.61 1.83 0.96 2.49 2.21 4.35 0.80 1.20 2.26 3.69 3.23 5.51 0.97 1.83 2.61 4.71 3.65 6.42 3.13 5.13 4.87 8.37 5.17 9.62 0.16 0.63 0.42 1.48 0.61 1.91 1.62 3.81 3.11 8.19 3.48 10.28 0.38 2.23 0.94 3.51 2.99 6.99 2.42 4.07 3.65 7.18 4.03 10.17 0.14 1.03 0.38 2.21 0.52 2.63 0.16 0.42 0.28 1.22 0.28 1.77 0 1.20 -0.14 1.34 -2.56 2.54 -1.93 0.96 -3.13 1.15 -3.97 0.61z"/>
        <path d="M105.22 137.51 l-1.13 -0.38 0.03 -1.63 c0.03 -1.43 0.09 -1.70 0.49 -2.30 l0.43 -0.68 1.55 0 c2.56 0 3.67 0.56 3.67 1.86 0 0.77 -0.71 2.16 -1.62 3.15 -0.47 0.52 -1.88 0.50 -3.43 -0.02z"/>
        <path d="M106.03 122.09 c-0.45 -0.07 -1.18 -0.31 -1.60 -0.52 l-0.78 -0.38 0 -1.13 c0 -0.61 0.16 -1.72 0.35 -2.45 0.17 -0.75 0.42 -1.93 0.52 -2.64 0.10 -0.71 0.37 -1.62 0.56 -2 0.19 -0.38 0.42 -1.29 0.50 -2 0.16 -1.41 1.01 -3.32 2 -4.49 0.30 -0.37 0.66 -0.87 0.82 -1.17 0.14 -0.28 0.66 -0.90 1.15 -1.39 0.56 -0.54 0.89 -1.01 0.89 -1.25 0 -0.63 0.40 -1.44 1.11 -2.28 0.35 -0.42 0.63 -0.96 0.63 -1.18 0 -0.30 0.14 -0.49 0.49 -0.63 0.26 -0.12 0.87 -0.59 1.37 -1.04 1.06 -0.97 1.58 -1.04 3.27 -0.43 l1.04 0.38 0.09 0.87 c0.05 0.49 0.26 1.15 0.49 1.50 0.28 0.45 0.38 0.90 0.38 1.60 0 0.70 0.12 1.20 0.43 1.79 0.24 0.45 0.43 1.11 0.43 1.48 0 0.38 0.19 1.01 0.45 1.50 l0.45 0.83 -0.10 3.22 c-0.17 5.69 -0.31 6.35 -1.48 7.44 -1.25 1.18 -5.83 3.53 -8.10 4.16 -1.10 0.30 -4.26 0.43 -5.36 0.23z"/>
    </g>
</svg>