<?xml version="1.0" encoding="utf-8"?>
<svg viewBox="0 0 701.95282 851.6792" width="701.95282" height="851.6792" xmlns="http://www.w3.org/2000/svg">
    <style>
        path { fill: #000 }
        @media (prefers-color-scheme: dark) {
            path { fill: #fff }
        }
    </style>
    <g transform="matrix(0.1,0,0,-0.1,-536.66637,1288.83)">
        <path d="m 8245,12875 c -107,-17 -140,-32 -264,-124 -58,-43 -128,-93 -156,-112 -74,-49 -238,-212 -317,-313 -38,-49 -107,-153 -152,-230 -103,-173 -147,-231 -316,-416 -73,-80 -157,-178 -187,-218 -30,-40 -71,-83 -91,-96 -49,-31 -217,-205 -272,-281 -57,-79 -118,-148 -344,-394 -104,-113 -229,-254 -278,-313 -60,-72 -120,-130 -186,-181 -214,-164 -263,-248 -299,-512 -29,-218 -18,-717 22,-975 8,-47 20,-130 29,-185 8,-55 22,-234 31,-399 15,-281 19,-334 44,-481 12,-72 27,-303 41,-665 6,-146 17,-364 25,-485 8,-121 22,-438 30,-705 15,-467 24,-613 45,-728 9,-51 27,-360 32,-555 3,-79 6,-91 26,-108 42,-34 134,-37 175,-6 21,16 33,94 51,352 19,256 21,282 51,520 51,406 79,808 95,1335 13,455 26,668 50,855 37,280 53,581 70,1320 13,549 31,789 71,928 16,58 231,320 403,493 83,82 219,204 301,270 187,148 662,619 820,813 61,74 115,136 121,138 19,6 22,-51 33,-622 30,-1459 31,-1494 60,-2225 5,-129 14,-251 20,-270 19,-62 40,-307 56,-665 28,-651 36,-799 50,-1030 8,-126 22,-360 30,-520 8,-159 20,-335 25,-390 5,-55 12,-190 15,-300 9,-295 29,-395 84,-425 44,-23 143,4 156,43 2,6 13,156 25,332 11,176 28,374 36,440 8,66 19,156 24,200 5,44 14,442 20,885 11,866 19,1092 50,1374 61,568 86,1014 100,1826 6,311 15,619 21,685 8,101 31,1306 33,1725 0,148 -10,177 -105,276 -72,75 -134,110 -219,123 -77,13 -82,13 -185,-4 z"/>
        <path d="m 9435,12880 c -77,-12 -120,-34 -185,-96 -90,-86 -118,-135 -131,-235 -15,-106 -5,-1880 10,-2012 6,-49 15,-436 21,-860 5,-425 14,-803 20,-842 20,-145 30,-294 55,-780 26,-517 36,-648 61,-750 10,-42 17,-168 24,-415 5,-195 14,-416 19,-490 6,-74 15,-265 21,-425 12,-335 36,-739 51,-839 14,-100 40,-153 84,-172 33,-14 40,-13 73,3 31,15 39,27 54,75 23,78 48,250 48,334 0,38 -7,125 -15,193 -14,119 -14,129 6,220 13,61 23,160 28,271 5,96 13,187 19,201 29,72 55,484 72,1164 15,571 26,680 102,980 28,111 29,129 24,230 -12,200 -8,775 8,1100 9,176 22,514 31,750 20,562 35,873 44,896 5,16 19,8 101,-62 144,-122 363,-332 458,-439 47,-52 137,-161 200,-243 123,-158 294,-330 389,-392 32,-21 76,-49 98,-64 22,-14 117,-101 212,-194 l 171,-169 -5,-216 c -4,-134 -1,-261 6,-332 6,-63 16,-238 21,-387 5,-150 11,-276 13,-280 12,-19 28,-215 47,-558 11,-203 25,-408 31,-455 22,-200 29,-295 39,-577 31,-902 41,-1115 61,-1332 6,-63 15,-126 21,-140 6,-15 14,-185 18,-406 8,-365 20,-548 41,-627 19,-71 97,-101 153,-57 51,40 57,66 67,290 5,115 18,303 28,417 11,114 25,276 31,361 6,85 20,223 30,308 32,255 59,686 70,1103 5,217 14,427 19,465 26,193 64,786 80,1260 5,154 8,546 7,870 l -2,590 -22,47 c -13,25 -42,68 -65,94 -75,85 -260,245 -332,286 -55,32 -114,86 -273,248 -215,221 -220,226 -359,425 -101,144 -232,299 -454,540 -144,157 -285,320 -344,400 -223,302 -447,495 -751,648 -139,70 -245,93 -349,77 z"/>
    </g>
</svg>
