<?xml version="1.0" encoding="utf-8"?>
<svg viewBox="0 0 1800.000000 1350.000000" width="1800" height="1350" xmlns="http://www.w3.org/2000/svg">
    <g fill="#e63246" transform="translate(0.000000,1350.000000) scale(0.100000,-0.100000)">
        <path d="M3915 13033 c-524 -68 -720 -78 -1120 -59 -164 8 -605 -10 -846 -34 -60 -6 -130 -4 -225 5 -231 22 -426 27 -694 16 -410 -16 -485 -33 -581 -131 -124 -126 -128 -157 -104 -805 11 -326 15 -578 11 -725 -22 -807 -15 -2173 16 -2940 20 -483 17 -1478 -6 -1825 -19 -299 -18 -493 4 -773 16 -212 29 -825 20 -952 -12 -158 -11 -409 2 -570 5 -74 12 -407 13 -740 3 -619 11 -841 45 -1200 31 -323 48 -582 60 -885 32 -843 30 -826 86 -875 42 -37 89 -40 129 -8 48 38 55 72 70 347 14 247 40 530 52 561 3 8 9 242 13 520 6 389 13 557 29 730 61 649 68 780 91 1910 15 713 45 1443 75 1835 20 252 33 836 46 2060 6 556 15 1048 20 1095 5 47 13 396 18 775 5 380 14 798 19 930 6 132 14 380 18 551 l7 311 360 6 c198 4 615 7 926 7 633 1 905 10 1126 39 361 48 584 48 730 -1 70 -23 71 -23 588 -21 l517 1 4 -21 c3 -12 7 -65 10 -117 7 -105 23 -205 60 -373 34 -151 53 -285 71 -512 9 -104 22 -217 29 -250 8 -33 17 -96 21 -140 11 -128 41 -165 133 -165 29 0 62 5 73 11 25 13 79 96 79 122 0 10 22 85 50 167 40 121 54 181 70 307 12 87 41 259 66 383 57 281 67 417 62 775 -4 262 -6 283 -26 329 -50 110 -128 176 -255 214 -70 20 -115 25 -307 33 -124 5 -243 13 -265 19 -52 13 -214 13 -467 -1 -202 -10 -207 -10 -329 15 -199 41 -480 64 -594 49z"/>
        <path d="M13203 12960 c-82 -19 -198 -122 -248 -220 -71 -140 -81 -388 -30 -720 15 -92 15 -121 4 -235 -18 -186 -16 -573 4 -795 33 -364 39 -587 41 -1480 2 -787 4 -906 18 -985 30 -160 39 -413 49 -1370 5 -517 11 -962 14 -990 2 -27 9 -131 15 -230 14 -230 34 -439 65 -690 30 -247 41 -374 60 -730 23 -425 36 -498 93 -549 26 -23 116 -34 127 -16 4 6 18 67 31 133 20 98 26 165 30 342 3 127 12 251 20 294 31 161 48 512 64 1366 12 640 25 947 45 1091 8 58 20 189 25 292 5 103 14 250 20 327 6 77 15 471 20 875 7 586 12 750 24 810 8 41 24 118 35 170 35 167 52 328 63 615 16 375 15 568 -1 895 -13 247 -12 285 2 370 24 144 30 366 18 662 -18 441 -34 544 -96 629 -42 59 -140 124 -205 138 -57 12 -258 13 -307 1z"/>
        <path d="M8245 12875 c-107 -17 -140 -32 -264 -124 -58 -43 -128 -93 -156 -112 -74 -49 -238 -212 -317 -313 -38 -49 -107 -153 -152 -230 -103 -173 -147 -231 -316 -416 -73 -80 -157 -178 -187 -218 -30 -40 -71 -83 -91 -96 -49 -31 -217 -205 -272 -281 -57 -79 -118 -148 -344 -394 -104 -113 -229 -254 -278 -313 -60 -72 -120 -130 -186 -181 -214 -164 -263 -248 -299 -512 -29 -218 -18 -717 22 -975 8 -47 20 -130 29 -185 8 -55 22 -234 31 -399 15 -281 19 -334 44 -481 12 -72 27 -303 41 -665 6 -146 17 -364 25 -485 8 -121 22 -438 30 -705 15 -467 24 -613 45 -728 9 -51 27 -360 32 -555 3 -79 6 -91 26 -108 42 -34 134 -37 175 -6 21 16 33 94 51 352 19 256 21 282 51 520 51 406 79 808 95 1335 13 455 26 668 50 855 37 280 53 581 70 1320 13 549 31 789 71 928 16 58 231 320 403 493 83 82 219 204 301 270 187 148 662 619 820 813 61 74 115 136 121 138 19 6 22 -51 33 -622 30 -1459 31 -1494 60 -2225 5 -129 14 -251 20 -270 19 -62 40 -307 56 -665 28 -651 36 -799 50 -1030 8 -126 22 -360 30 -520 8 -159 20 -335 25 -390 5 -55 12 -190 15 -300 9 -295 29 -395 84 -425 44 -23 143 4 156 43 2 6 13 156 25 332 11 176 28 374 36 440 8 66 19 156 24 200 5 44 14 442 20 885 11 866 19 1092 50 1374 61 568 86 1014 100 1826 6 311 15 619 21 685 8 101 31 1306 33 1725 0 148 -10 177 -105 276 -72 75 -134 110 -219 123 -77 13 -82 13 -185 -4z"/>
        <path d="M9435 12880 c-77 -12 -120 -34 -185 -96 -90 -86 -118 -135 -131 -235 -15 -106 -5 -1880 10 -2012 6 -49 15 -436 21 -860 5 -425 14 -803 20 -842 20 -145 30 -294 55 -780 26 -517 36 -648 61 -750 10 -42 17 -168 24 -415 5 -195 14 -416 19 -490 6 -74 15 -265 21 -425 12 -335 36 -739 51 -839 14 -100 40 -153 84 -172 33 -14 40 -13 73 3 31 15 39 27 54 75 23 78 48 250 48 334 0 38 -7 125 -15 193 -14 119 -14 129 6 220 13 61 23 160 28 271 5 96 13 187 19 201 29 72 55 484 72 1164 15 571 26 680 102 980 28 111 29 129 24 230 -12 200 -8 775 8 1100 9 176 22 514 31 750 20 562 35 873 44 896 5 16 19 8 101 -62 144 -122 363 -332 458 -439 47 -52 137 -161 200 -243 123 -158 294 -330 389 -392 32 -21 76 -49 98 -64 22 -14 117 -101 212 -194 l171 -169 -5 -216 c-4 -134 -1 -261 6 -332 6 -63 16 -238 21 -387 5 -150 11 -276 13 -280 12 -19 28 -215 47 -558 11 -203 25 -408 31 -455 22 -200 29 -295 39 -577 31 -902 41 -1115 61 -1332 6 -63 15 -126 21 -140 6 -15 14 -185 18 -406 8 -365 20 -548 41 -627 19 -71 97 -101 153 -57 51 40 57 66 67 290 5 115 18 303 28 417 11 114 25 276 31 361 6 85 20 223 30 308 32 255 59 686 70 1103 5 217 14 427 19 465 26 193 64 786 80 1260 5 154 8 546 7 870 l-2 590 -22 47 c-13 25 -42 68 -65 94 -75 85 -260 245 -332 286 -55 32 -114 86 -273 248 -215 221 -220 226 -359 425 -101 144 -232 299 -454 540 -144 157 -285 320 -344 400 -223 302 -447 495 -751 648 -139 70 -245 93 -349 77z"/>
        <path d="M4993 9235 c-73 -20 -153 -62 -338 -177 -181 -113 -344 -230 -392 -280 -44 -46 -89 -147 -115 -259 -33 -145 -31 -414 5 -704 16 -121 30 -281 32 -355 2 -74 10 -178 19 -230 14 -86 38 -267 141 -1060 61 -474 71 -646 85 -1465 11 -672 17 -741 72 -779 23 -16 110 -22 143 -10 40 16 56 111 70 409 8 180 22 314 50 495 34 213 43 395 55 1040 8 430 14 592 29 720 25 213 39 457 46 805 6 279 1 385 -31 742 -20 212 -13 263 49 368 19 33 58 128 87 210 42 122 64 168 116 247 101 152 113 196 71 259 -21 32 -27 34 -82 36 -33 1 -84 -4 -112 -12z"/>
        <path d="M17030 5094 c-106 -24 -135 -26 -370 -28 -140 -1 -331 -7 -425 -14 -93 -7 -330 -17 -525 -22 -267 -7 -371 -13 -420 -25 -36 -9 -112 -23 -170 -31 -57 -8 -129 -21 -160 -29 -30 -8 -95 -19 -145 -25 -49 -6 -119 -15 -155 -19 -36 -5 -95 -21 -130 -36 -36 -14 -77 -32 -92 -38 -22 -9 -37 -8 -75 6 -108 39 -245 30 -399 -24 -139 -49 -174 -79 -174 -148 0 -40 31 -75 91 -101 46 -19 79 -23 273 -31 451 -18 721 -44 956 -94 214 -45 232 -46 790 -55 441 -7 556 -11 600 -24 30 -8 111 -22 179 -31 69 -8 129 -19 134 -24 15 -15 26 -138 42 -471 9 -179 20 -383 26 -455 10 -129 91 -721 129 -948 34 -198 40 -263 50 -522 5 -138 18 -368 29 -510 11 -143 27 -370 36 -505 17 -278 29 -352 60 -388 23 -27 67 -32 104 -12 75 40 107 271 141 1025 19 406 70 1248 85 1410 9 88 29 248 45 355 16 107 34 233 40 280 6 47 15 279 20 515 6 358 11 441 25 495 25 92 17 269 -14 333 -32 65 -136 160 -208 188 -91 35 -244 36 -393 3z"/>
    </g>
</svg>
