<svg xmlns="http://www.w3.org/2000/svg" fill="none" viewBox="0 0 22 22" id="Youtube-Music-Logo--Streamline-Logos">
  <desc>
    Youtube Music Logo Streamline Icon: https://streamlinehq.com
  </desc>
  <path fill="#000000" fill-rule="evenodd" d="M 22,11 C 22,17.075 17.075,22 11,22 4.925,22 0,17.075 0,11 0,4.925 4.925,0 11,0 17.075,0 22,4.925 22,11 Z M 11,6 a 5,5 0 1 0 0,10 5,5 0 0 0 0,-10 z m -6,5 a 6,6 0 1 1 12,0 6,6 0 0 1 -12,0 z m 9,0 -5,-3 v 6 z" clip-rule="evenodd" stroke-width="1"></path>
</svg>